<?xml version="1.0" encoding="utf-8"?>
<!-- Generator: Adobe Illustrator 18.0.0, SVG Export Plug-In . SVG Version: 6.00 Build 0)  -->
<!DOCTYPE svg PUBLIC "-//W3C//DTD SVG 1.1//EN" "http://www.w3.org/Graphics/SVG/1.1/DTD/svg11.dtd">
<svg version="1.1" id="Layer_1" xmlns="http://www.w3.org/2000/svg" xmlns:xlink="http://www.w3.org/1999/xlink" x="0px" y="0px"
	 viewBox="0 0 500 500" style="enable-background:new 0 0 500 500;" xml:space="preserve">
<path d="M12,326c0-100.3,0-200.7,0-301c0.5-1,1-2,1.4-3.1c3.3-8.5,9.9-12.6,18.8-11c3.4,0.6,6.7,1.8,9.8,3.3
	c86.3,43.4,172.7,86.7,258.9,130.4c18.9,9.6,29,26.4,29,47.7c0.3,94.8,0.1,189.6,0.2,284.5c0,10.1-2.6,18.2-12,23.1
	c-3.3,0-6.6,0-9.9,0c-3-1.4-6-2.7-8.9-4.2c-85.4-43-170.7-86-256.2-128.8c-12-6-20.4-15.1-26-27.1C15,335.5,13.7,330.6,12,326z
	 M202.7,303.2c0.5,12.7,2.9,24.8,10.5,35.4c11.7,16.3,29.7,16.8,42,1.2c15-19,14.8-54.5-0.4-73.5c-12-14.9-29-14.7-40.8,0.4
	C205.7,277.5,203.2,290.1,202.7,303.2z M366.5,351.2c29.5,0,58.9,0,88.4-0.1c20.9,0,34-13.3,34-34.4c0-95,0-190,0-284.9
	c0-18.7-14-32.8-32.7-32.8c-122.2,0-244.4,0-366.6,0c-1.5,0-3.1,0-4.6,0c1.4,1.7,2.8,2.5,4.2,3.2c38.7,19.5,77.4,39.1,116.2,58.4
	c3.1,1.5,6.9,2.4,10.4,2.4c68,0.1,136.1,0.1,204.1,0.1c1.7,0,3.5,0.2,5,0.2c0,10.9,0,21.1,0,31.7c-50,0-99.6,0-149.1,0
	c1.2,1.6,2.7,2.6,4.3,3.3c10.5,5.3,20.9,10.8,31.5,15.8c18.6,8.8,31.9,22.9,41,41.2c1.5,3.1,3.3,3.9,6.5,3.8
	c20.5-0.1,41.1-0.1,61.6-0.1c1.4,0,2.9,0.2,4.5,0.3c0,10.6,0,20.9,0,31.7c-21.2,0-42.1,0-63.1,0c0,53.5,0,106.5,0,160
	C363.9,351.2,365.2,351.2,366.5,351.2z"/>
</svg>
