<?xml version="1.0" encoding="utf-8"?>
<!-- Generator: Adobe Illustrator 18.0.0, SVG Export Plug-In . SVG Version: 6.00 Build 0)  -->
<!DOCTYPE svg PUBLIC "-//W3C//DTD SVG 1.1//EN" "http://www.w3.org/Graphics/SVG/1.1/DTD/svg11.dtd">
<svg version="1.1" id="Layer_1" xmlns="http://www.w3.org/2000/svg" xmlns:xlink="http://www.w3.org/1999/xlink" x="0px" y="0px"
	 viewBox="0 0 500 500" style="enable-background:new 0 0 500 500;" xml:space="preserve">
<path d="M499.6,234.9c0,88.2,0,176.3,0,264.6c-165.8,0-331.6,0-498,0c0-88.1,0-176.3,0-264.6c0.5-1.4,1.2-2.7,1.4-4.2
	c2.2-13.5,3-27.5,6.6-40.6C35.3,96.1,95.5,35.9,189.2,9.4c13.3-3.8,27.3-5.3,41-7.9c13.6,0,27.1,0,40.7,0c1.4,0.5,2.8,1.2,4.3,1.3
	c24.2,2,47.6,7.6,69.9,17.3c82,36,132.5,97.6,149.9,185.8C496.9,215.6,498.1,225.3,499.6,234.9z M184,366.6
	c-14.9-0.1-25.9,10.7-26.1,25.3c-0.2,15,11.1,26.5,26,26.5c14.4,0,25.7-11.5,25.8-26C209.8,377.8,198.7,366.6,184,366.6z
	 M310.4,366.8c-14.3-0.1-25.8,11.2-26,25.5c-0.2,14.7,11.3,26.5,25.9,26.5c14.2,0,25.8-11.4,26.1-25.6
	C336.6,378.7,325,366.9,310.4,366.8z M338.3,270.1c0.1-14.6-11.5-26.4-26-26.4c-14.2,0-25.8,11.4-25.9,25.7
	c-0.2,14.7,11.4,26.5,26,26.4C326.5,295.8,338.1,284.3,338.3,270.1z M211.7,269.9c0.1-14.6-10.9-26-25.2-26.3
	c-14.6-0.3-26.4,11.2-26.6,25.9c-0.1,14.6,11.6,26.4,26.1,26.3C200.3,295.7,211.6,284.3,211.7,269.9z"/>
</svg>
