<?xml version="1.0" encoding="utf-8"?>
<!-- Generator: Adobe Illustrator 18.0.0, SVG Export Plug-In . SVG Version: 6.00 Build 0)  -->
<!DOCTYPE svg PUBLIC "-//W3C//DTD SVG 1.1//EN" "http://www.w3.org/Graphics/SVG/1.1/DTD/svg11.dtd">
<svg version="1.1" id="Layer_1" xmlns="http://www.w3.org/2000/svg" xmlns:xlink="http://www.w3.org/1999/xlink" x="0px" y="0px"
	 viewBox="0 0 500 500" style="enable-background:new 0 0 500 500;" xml:space="preserve">
<path d="M3.5,379c0-4.8,0-9.6,0-14.4c0.4-2.7,0.8-5.3,1.2-8c7.7-48.2,33.4-83,79.2-100.6c53.4-20.6,107.6-39.4,161.4-58.9
	c3.5-1.3,4.9-2.8,4.9-6.8C250,128,250,65.8,250,3.5c82.2,0,164.3,0,246.5,0c0,73.5,0,147,0,220.5c-21.3-6-42.6-6.3-64-0.3
	c-82.3,23-116.7,119.3-67.5,189.2c1,1.4,1.8,2.8,3,4.5c-17.5,6.3-34.5,12.5-51.5,18.7c-47.8,17.4-95.6,35-143.5,52.1
	c-10.3,3.7-21.2,5.6-31.9,8.3c-8.7,0-17.3,0-26,0c-0.9-0.3-1.7-0.8-2.6-0.9c-50.6-6-93.9-44.7-105.2-94.4
	C5.7,393.9,4.8,386.4,3.5,379z M496.5,261.8c-3-0.8-5.9-1.6-8.9-2.4c-15.7-4.6-31.2-4.1-46.8,0.6c-61.2,18.3-83.5,95.8-41.3,143.1
	c2.1,2.4,3.9,3.2,7,1.9c10-3.9,20.2-7.3,30.2-11.1c29.1-11.2,47.8-32,56.1-62.2c1-3.6,2.4-7.1,3.6-10.7
	C496.5,301.2,496.5,281.5,496.5,261.8z"/>
</svg>
