<?xml version="1.0" encoding="utf-8"?>
<!-- Generator: Adobe Illustrator 18.0.0, SVG Export Plug-In . SVG Version: 6.00 Build 0)  -->
<!DOCTYPE svg PUBLIC "-//W3C//DTD SVG 1.1//EN" "http://www.w3.org/Graphics/SVG/1.1/DTD/svg11.dtd">
<svg version="1.1" id="Layer_1" xmlns="http://www.w3.org/2000/svg" xmlns:xlink="http://www.w3.org/1999/xlink" x="0px" y="0px"
	 viewBox="0 0 500 500" style="enable-background:new 0 0 500 500;" xml:space="preserve">
<path d="M61.2,326.2c-7.2-8.5-14.6-16.1-20.7-24.6C14,265.1,2.2,224.2,4.7,179.1c1.5-26.1,8.2-50.7,19.9-73.9
	c7.8-15.4,23-18.1,35.8-6.3c13.5,12.5,27,25.1,40.5,37.6c7.4,6.8,19,7.3,28,1.2c9.1-6.2,12.7-17.5,8.2-28.1c-1.7-4.1-4.6-7.9-7.7-11
	c-11.7-11.8-23.7-23.3-35.7-34.9c-12.4-12-10.6-27.1,4.3-35.6c70.1-39.7,158.8-28.9,217.3,26.4c0.9,0.9,1.8,1.8,3,3.1
	C232.9,146.8,147.6,235.9,61.2,326.2z M159.6,282.9c31.1,30.4,61.9,60.5,93,91c6.2-16,12-31,17.8-46c15.1-39,30.3-77.9,45.3-116.9
	c0.7-1.7,0.8-4.9-0.3-6c-13.7-13.7-27.6-27.2-42-41.1C235.4,203.7,197.7,243.1,159.6,282.9z M348.6,239.4
	c-21.1,53.9-42.1,107.9-63.3,161.7c-1.3,3.2-0.6,4.9,1.7,7c11.6,11,23,22.2,34.5,33.3c7.8,7.6,15.6,15.1,23.9,23
	c0.7-1.4,1.1-2.2,1.5-3.1c20.7-53.9,41.5-107.7,62.3-161.6c1.1-2.9,0.2-4.4-1.7-6.3c-9.7-9.4-19.5-18.8-29-28.5
	c-9.2-9.4-18.1-19.2-27.8-29.5C349.2,238.2,348.8,238.8,348.6,239.4z M381,485c1.7,0.4,2.9,0.8,4.1,1c28.6,3.3,57.2,6.7,85.8,9.8
	c14.6,1.6,25.9-11.1,23.7-25.7c-4.3-28.6-8.2-57.3-12.5-86c-1.2-7.8-0.5-16.5-6.3-22.7c-10.6-11.2-21.9-21.7-33.3-33
	C421.9,381.1,401.5,432.9,381,485z"/>
</svg>
