<?xml version="1.0" encoding="utf-8"?>
<!-- Generator: Adobe Illustrator 18.0.0, SVG Export Plug-In . SVG Version: 6.00 Build 0)  -->
<!DOCTYPE svg PUBLIC "-//W3C//DTD SVG 1.1//EN" "http://www.w3.org/Graphics/SVG/1.1/DTD/svg11.dtd">
<svg version="1.1" id="Layer_1" xmlns="http://www.w3.org/2000/svg" xmlns:xlink="http://www.w3.org/1999/xlink" x="0px" y="0px"
	 viewBox="0 0 500 500" style="enable-background:new 0 0 500 500;" xml:space="preserve">
<path d="M0,112.4c0-0.7,0-1.4,0-2c32.7-17.9,65.3-35.9,98-53.8c27.1-14.8,54.2-29.4,81.4-44c1.6-0.9,4.4-1.5,5.7-0.7
	c8.9,5.7,18.9,7,28.9,8.3c24.2,3.1,48.4,3.3,72.5-0.2c8.9-1.3,17.7-4.1,26.2-7.2c3.2-1.2,5.3-1.8,8.4-0.1
	c28.4,15.5,56.9,30.8,85.2,46.3c31.3,17.1,62.5,34.2,93.7,51.4c0,0.7,0,1.4,0,2c-0.8,1.4-1.7,2.8-2.3,4.3
	c-12.7,31.2-25.4,62.3-38,93.5c-1.3,3.2-2.6,4.3-6.1,3.8c-11.7-1.9-23.5-3.3-35.3-4.8c-7-0.9-14-1.8-21.8-2.8
	c0,94.8,0,188.8,0,282.7c-98.1,0-195.5,0-293.5,0c0-94.3,0-188.2,0-282.6c-2.6,0.2-4.6,0.4-6.5,0.6c-16.8,2.3-33.5,4.4-50.2,6.9
	c-3.5,0.5-4.8-0.6-6.1-3.8c-10.4-25.9-20.9-51.7-31.4-77.6C6,125.8,3,119.2,0,112.4z M188,36c0.9,1.6,1.5,2.8,2.3,3.9
	c19.4,26.8,45.1,37.8,76.5,32.2c18.7-3.3,33.8-13.5,43.4-31.4c0.6-1.2,1-2.6,1.6-4.3C270.2,53.1,229.4,51,188,36z"/>
</svg>
