<?xml version="1.0" encoding="utf-8"?>
<!-- Generator: Adobe Illustrator 18.0.0, SVG Export Plug-In . SVG Version: 6.00 Build 0)  -->
<!DOCTYPE svg PUBLIC "-//W3C//DTD SVG 1.1//EN" "http://www.w3.org/Graphics/SVG/1.1/DTD/svg11.dtd">
<svg version="1.1" id="Layer_1" xmlns="http://www.w3.org/2000/svg" xmlns:xlink="http://www.w3.org/1999/xlink" x="0px" y="0px"
	 viewBox="0 0 500 500" style="enable-background:new 0 0 500 500;" xml:space="preserve">
<style type="text/css">
	.st0{fill:none;}
</style>
<path class="st0" d="M239.4,111.8c-12.1,0-23.3-0.2-34.6,0.2c-2,0.1-4.4,2.1-5.6,4.1c-13.6,21.1-26.9,42.2-40.3,63.3
	c-7.2,11.4-18.8,15-30.5,9.9c-13.1-5.7-17.9-21.8-10.2-34.3c12.9-20.9,26.3-41.7,39.4-62.5c5-7.9,10.2-15.8,15.2-23.9
	c2-3.3,4.5-4.8,8.4-4.8c27.8,0.4,55.6-0.3,83.3,1.5c12.4,0.9,25,5.7,36.7,10.8c17.8,7.5,33.9,18.3,46.9,32.9
	c8.2,9.4,15,20,22.1,30.2c7.4,10.7,14.6,21.7,21.6,32.6c1.7,2.6,3.6,3.9,6.8,3.9c19.4-0.1,38.5-0.1,57.9,0.1
	c13.9,0.1,21.8,7.1,24.2,20.7c2.3,12.5-8.4,26.2-21.3,26.3c-28.9,0.3-57.9,0.2-86.7-0.1c-2.4,0-5.6-2.4-6.9-4.8
	c-13.1-20-26.1-40.1-38.9-60.2c-0.4-0.8-0.9-1.5-1.8-2.6c-1.1,1.5-2,2.8-2.8,3.9C307,183.8,291.8,209,276.5,234
	c-1.5,2.6-1.6,4.6,0.1,7.2c16.4,25.4,32.5,51,48.9,76.5c1.8,2.8,2,4.8,0.2,7.7c-19.8,30.7-39.6,61.1-58.8,92.1
	c-10.2,16.5-30.2,14.9-38.8,5c-6.8-7.7-8.7-18.2-3.1-27.7c8.7-14.6,17.9-28.4,27.1-42.7c5.7-9.1,11.6-17.9,17-27.2
	c0.9-1.6,1.3-4.7,0.3-6.1c-16.8-26.9-33.8-53.5-50.8-80.4c-0.3-0.5-0.9-1.1-1.6-2.1c-6.5,9.9-12.7,19.4-19.1,28.9
	c-10.4,16.1-20.9,32.3-30.9,48.7c-2.3,3.9-5,4.8-9.2,4.8c-38-0.1-76.1-0.1-114-0.1c-15,0-25.1-9.8-25.2-23.9
	c-0.2-13.4,10.4-23.8,24.9-23.8c29.2-0.1,58.6-0.1,87.8,0.1c4.5,0,7.1-1.2,9.6-5.1c31.9-50.2,63.9-100.3,95.8-150.3
	C237.7,114.9,238.2,113.8,239.4,111.8z M369.8,0.5c25-0.8,47.5,20.9,47.5,47.2c-0.1,27.2-21.1,47.9-48.4,48
	c-25.7,0-47.4-22.3-46.9-47.8C322.6,21,343,0.4,369.8,0.5z M86.3,426.7C86.3,426.7,86.3,426.6,86.3,426.7c0.3-0.2,0.8-0.2,0.9-0.2
	c0.4,0,0.9,0,1.4,0c0.9,0,1.8,0,2.8,0c3.4,0,6.8,0,10.2,0c0.5,0,1.1-0.1,1.5,0c0.8,0.1,0.8,0.4,1.2,1.2c0.9,1.8,2,3.6,2.4,5.6
	c2.6,8,9.5,11.3,18.3,11.3c78.7-0.1,157.2-0.1,235.9-0.1c2.4,0,5,0,7.9,0c0,6.1,0,11.7,0,17.9c-2.4,0-5,0-7.5,0
	c-80,0-159.9-0.2-239.8,0.2c-13.9,0.1-31.4-12.2-34.3-28.6c-0.2-1.2-0.4-2.4-0.6-3.6c0-0.1,0-0.2-0.1-0.2c-0.2-0.6-0.4-1.3-0.5-2
	C85.9,427.7,85.8,427,86.3,426.7z M143.1,459.4c10.5-0.3,19.9,8.7,19.9,19.7c0,11.3-8.8,20-20.2,20.1c-10.7,0-19.8-9.3-19.6-20
	C123.3,468,131.9,459.3,143.1,459.4z M330.1,459.4c10.5-0.3,19.9,8.7,19.9,19.7c0,11.3-8.8,20-20.2,20.1c-10.7,0-19.8-9.3-19.6-20
	C310.4,468,318.9,459.3,330.1,459.4z"/>
</svg>
