<?xml version="1.0" encoding="utf-8"?>
<!-- Generator: Adobe Illustrator 18.0.0, SVG Export Plug-In . SVG Version: 6.00 Build 0)  -->
<!DOCTYPE svg PUBLIC "-//W3C//DTD SVG 1.1//EN" "http://www.w3.org/Graphics/SVG/1.1/DTD/svg11.dtd">
<svg version="1.1" id="Layer_1" xmlns="http://www.w3.org/2000/svg" xmlns:xlink="http://www.w3.org/1999/xlink" x="0px" y="0px"
	 viewBox="0 0 500 500" style="enable-background:new 0 0 500 500;" xml:space="preserve">
<style type="text/css">
	.st0{fill:none;}
</style>
<path class="st0" d="M235.8,0h27.3c1.8,0,3.7,0.2,5.5,0.6c0.4,0.1,0.9,0.2,1.3,0.2c11.7,1.7,23.5,2.9,35,5.3
	c96.5,20.4,174.9,102.4,191.2,199.8c1.5,8.7,2.5,17.5,3.7,26.3c0.2,1.2,0.2,2.4,0.2,3.5v27.5c0,1.8-0.2,3.6-0.6,5.4
	c-0.1,0.3-0.1,0.5-0.2,0.8c-0.1,0.6-0.2,1.1-0.3,1.7c-1.6,11.2-2.7,22.6-5.2,33.6c-20,94.6-99.4,172.2-194.4,190.2
	c-10.5,2-21,3.2-31.6,4.7c-1.3,0.2-1,0.3-2.3,0.3c-3.1,0-26.5,0-30.9,0c-1.8,0-1.5-0.2-3.3-0.6c-0.4-0.1-0.9-0.2-1.3-0.2
	c-11.7-1.7-23.5-2.9-35-5.3C98.6,473.5,20.2,391.5,3.9,294.1c-1.4-8.7-2.5-17.5-3.7-26.3C0,266.6,0,266.9,0,265.7c0-2.9,0-26.7,0-31
	c0-1.8,0.2-1.5,0.6-3.3c0.1-0.3,0.1-0.5,0.2-0.8c0.1-0.6,0.2-1.1,0.3-1.7c1.6-11.2,2.7-22.6,5.1-33.6C26.1,100.6,105.5,23,200.5,5
	c10.5-2,21.1-3.3,31.7-4.7C233.4,0.1,234.6,0,235.8,0z M248.8,349c55.2,0,100-44.5,100.2-99.5c0.1-55.5-44.4-100.4-99.6-100.5
	c-55.5-0.1-100.3,44.5-100.4,99.7C148.9,304.1,193.6,349,248.8,349z M249,299c-27.8,0-50.1-22.4-50-50.3c0.1-27.5,22.4-49.7,50-49.7
	c27.8,0,50.1,22.4,50,50.3C298.9,276.8,276.6,299,249,299z"/>
</svg>
